<svg width="24" height="24" viewBox="0 0 24 24" fill="none" xmlns="http://www.w3.org/2000/svg">
<rect width="24" height="24" fill="white"/>
<g clip-path="url(#clip0_4253_9443)">
<path fill-rule="evenodd" clip-rule="evenodd" d="M6.16667 5.83335C5.52233 5.83335 5 6.35569 5 7.00002V18.6667C5 19.311 5.52233 19.8334 6.16667 19.8334H17.8333C18.4777 19.8334 19 19.311 19 18.6667V7.00002C19 6.35569 18.4777 5.83335 17.8333 5.83335H6.16667ZM4 7.00002C4 5.8034 4.97005 4.83335 6.16667 4.83335H17.8333C19.03 4.83335 20 5.8034 20 7.00002V18.6667C20 19.8633 19.03 20.8334 17.8333 20.8334H6.16667C4.97005 20.8334 4 19.8633 4 18.6667V7.00002Z" fill="#00B856"/>
<path fill-rule="evenodd" clip-rule="evenodd" d="M15.3333 3.16669C15.6095 3.16669 15.8333 3.39054 15.8333 3.66669V7.00002C15.8333 7.27616 15.6095 7.50002 15.3333 7.50002C15.0572 7.50002 14.8333 7.27616 14.8333 7.00002V3.66669C14.8333 3.39054 15.0572 3.16669 15.3333 3.16669Z" fill="#00B856"/>
<path fill-rule="evenodd" clip-rule="evenodd" d="M8.66667 3.16669C8.94281 3.16669 9.16667 3.39054 9.16667 3.66669V7.00002C9.16667 7.27616 8.94281 7.50002 8.66667 7.50002C8.39052 7.50002 8.16667 7.27616 8.16667 7.00002V3.66669C8.16667 3.39054 8.39052 3.16669 8.66667 3.16669Z" fill="#00B856"/>
<path fill-rule="evenodd" clip-rule="evenodd" d="M4 10.3334C4 10.0572 4.22386 9.83335 4.5 9.83335H19.5C19.7761 9.83335 20 10.0572 20 10.3334C20 10.6095 19.7761 10.8334 19.5 10.8334H4.5C4.22386 10.8334 4 10.6095 4 10.3334Z" fill="#00B856"/>
</g>
<defs>
<clipPath id="clip0_4253_9443">
<rect width="20" height="20" fill="white" transform="translate(2 2)"/>
</clipPath>
</defs>
</svg>
