<svg width="32" height="32" viewBox="0 0 32 32" fill="none" xmlns="http://www.w3.org/2000/svg">
<path d="M8 0C6.9 0 6 0.9 6 2V30C6 31.1 6.9 32 8 32H28C29.1 32 30 31.1 30 30V8L22 0H8Z" fill="#DFE3F1"/>
<path d="M24 8H30L22 0V6C22 7.1 22.9 8 24 8Z" fill="#B0B7BD"/>
<path d="M30 14L24 8H30V14Z" fill="#CAD1D8"/>
<path d="M26 26C26 26.55 25.55 27 25 27H3C2.45 27 2 26.55 2 26V16C2 15.45 2.45 15 3 15H25C25.55 15 26 15.45 26 16V26Z" fill="#50BEE8"/>
<path d="M5.78589 24C5.52189 24 5.23389 23.855 5.23389 23.504V18.963C5.23389 18.675 5.52189 18.467 5.78589 18.467H7.61689C11.2709 18.467 11.1899 24 7.68789 24H5.78589ZM6.28989 19.442V23.024H7.61689C9.77589 23.024 9.87089 19.442 7.61689 19.442H6.28989Z" fill="white"/>
<path d="M14.2499 24.0801C12.7709 24.1441 11.2349 23.1601 11.2349 21.2011C11.2349 19.2341 12.7699 18.2671 14.2499 18.2671C15.6489 18.3381 17.1119 19.3061 17.1119 21.2011C17.1119 23.0971 15.6489 24.0801 14.2499 24.0801ZM14.1619 19.3071C13.2659 19.3071 12.2909 19.9391 12.2909 21.2021C12.2909 22.4581 13.2669 23.0981 14.1619 23.0981C15.0819 23.0981 16.0649 22.4581 16.0649 21.2021C16.0649 19.9381 15.0819 19.3071 14.1619 19.3071Z" fill="white"/>
<path d="M18.0527 21.193C18.0527 19.65 19.0207 18.323 20.8597 18.323C21.5557 18.323 22.1077 18.531 22.6907 19.035C22.9067 19.234 22.9307 19.586 22.7147 19.81C22.4987 20.001 22.1707 19.978 21.9787 19.786C21.6517 19.442 21.3157 19.347 20.8597 19.347C19.6287 19.347 19.0377 20.219 19.0377 21.194C19.0377 22.186 19.6207 23.097 20.8597 23.097C21.3157 23.097 21.7397 22.912 22.1077 22.585C22.3547 22.393 22.6987 22.488 22.8427 22.681C22.9707 22.857 23.0337 23.153 22.7547 23.432C22.1947 23.953 21.5237 24.057 20.8587 24.057C18.9247 24.057 18.0527 22.736 18.0527 21.193Z" fill="white"/>
<path d="M25 27H6V28H25C25.55 28 26 27.55 26 27V26C26 26.55 25.55 27 25 27Z" fill="#CAD1D8"/>
</svg>
