<svg width="32" height="32" viewBox="0 0 32 32" fill="none" xmlns="http://www.w3.org/2000/svg">
<mask id="mask0_1531_1603" style="mask-type:alpha" maskUnits="userSpaceOnUse" x="6" y="0" width="24" height="32">
<path d="M8 0C6.9 0 6 0.9 6 2V30C6 31.1 6.9 32 8 32H28C29.1 32 30 31.1 30 30V8L22 0H8Z" fill="#E2E5E7"/>
</mask>
<g mask="url(#mask0_1531_1603)">
<path d="M8 0C6.9 0 6 0.9 6 2V30C6 31.1 6.9 32 8 32H28C29.1 32 30 31.1 30 30V8L22 0H8Z" fill="#DFE3F1"/>
<path d="M24 8H30L22 0V6C22 7.1 22.9 8 24 8Z" fill="#B0B7BD"/>
<path d="M30 14L24 8H30V14Z" fill="#CAD1D8"/>
<path d="M11.2187 19.5625C12.7893 19.5625 14.0625 18.3173 14.0625 16.7812C14.0625 15.2452 12.7893 14 11.2187 14C9.64819 14 8.375 15.2452 8.375 16.7812C8.375 18.3173 9.64819 19.5625 11.2187 19.5625Z" fill="#F7B84E"/>
<path d="M5.55931 30.2399C4.85303 30.8435 5.27993 32 6.20903 32H10.279H28.9999C29.5522 32 29.9999 31.5523 29.9999 31V25.6202C29.9999 25.3468 29.888 25.0854 29.6902 24.8966L24.5783 20.0196C24.1719 19.6319 23.5259 19.6549 23.1481 20.0705L18.0732 25.6523C17.6886 26.0754 17.0281 26.0904 16.6247 25.6852L14.641 23.6932C14.2721 23.3227 13.6801 23.2989 13.2827 23.6386L5.55931 30.2399Z" fill="#84BD5A"/>
</g>
</svg>
