<svg width="32" height="32" viewBox="0 0 32 32" fill="none" xmlns="http://www.w3.org/2000/svg">
<path d="M8 0C6.9 0 6 0.9 6 2V30C6 31.1 6.9 32 8 32H28C29.1 32 30 31.1 30 30V8L22 0H8Z" fill="#DFE3F1"/>
<path d="M24 8H30L22 0V6C22 7.1 22.9 8 24 8Z" fill="#B0B7BD"/>
<path d="M30 14L24 8H30V14Z" fill="#CAD1D8"/>
<path d="M26 26C26 26.55 25.55 27 25 27H3C2.45 27 2 26.55 2 26V16C2 15.45 2.45 15 3 15H25C25.55 15 26 15.45 26 16V26Z" fill="#576D7E"/>
<path d="M6.43213 18.947C6.43213 18.683 6.64013 18.394 6.97613 18.394H8.82313C9.86313 18.394 10.7991 19.09 10.7991 20.425C10.7991 21.689 9.86313 22.392 8.82313 22.392H7.48713V23.448C7.48713 23.801 7.26413 24 6.97613 24C6.71213 24 6.43213 23.801 6.43213 23.448V18.947ZM7.48713 19.402V21.393H8.82213C9.35813 21.393 9.78213 20.921 9.78213 20.425C9.78213 19.865 9.35813 19.402 8.82213 19.402H7.48713Z" fill="white"/>
<path d="M11.6553 23.504V18.963C11.6553 18.675 11.8633 18.467 12.2233 18.467C12.5023 18.467 12.7103 18.675 12.7103 18.963V20.706H15.3163V18.963C15.3163 18.675 15.5723 18.467 15.8603 18.467C16.1393 18.467 16.3563 18.675 16.3563 18.963V23.504C16.3563 23.784 16.1393 24 15.8603 24C15.5723 24 15.3163 23.784 15.3163 23.504V21.754H12.7103V23.504C12.7103 23.784 12.5023 24 12.2233 24C11.8633 24 11.6553 23.784 11.6553 23.504Z" fill="white"/>
<path d="M17.479 18.947C17.479 18.683 17.687 18.394 18.023 18.394H19.87C20.91 18.394 21.846 19.09 21.846 20.425C21.846 21.689 20.91 22.392 19.87 22.392H18.535V23.448C18.535 23.801 18.311 24 18.023 24C17.759 24 17.479 23.801 17.479 23.448V18.947ZM18.535 19.402V21.393H19.87C20.406 21.393 20.83 20.921 20.83 20.425C20.83 19.865 20.406 19.402 19.87 19.402H18.535Z" fill="white"/>
<path d="M25 27H6V28H25C25.55 28 26 27.55 26 27V26C26 26.55 25.55 27 25 27Z" fill="#CAD1D8"/>
</svg>
