<svg width="32" height="32" viewBox="0 0 32 32" fill="none" xmlns="http://www.w3.org/2000/svg">
<path d="M8 0C6.9 0 6 0.9 6 2V30C6 31.1 6.9 32 8 32H28C29.1 32 30 31.1 30 30V8L22 0H8Z" fill="#DFE3F1"/>
<path d="M24 8H30L22 0V6C22 7.1 22.9 8 24 8Z" fill="#B0B7BD"/>
<path d="M30 14L24 8H30V14Z" fill="#CAD1D8"/>
<path d="M26 26C26 26.55 25.55 27 25 27H3C2.45 27 2 26.55 2 26V16C2 15.45 2.45 15 3 15H25C25.55 15 26 15.45 26 16V26Z" fill="#F15642"/>
<path d="M6.59082 18.947C6.59082 18.683 6.79882 18.395 7.13382 18.395H8.98082C10.0208 18.395 10.9568 19.091 10.9568 20.425C10.9568 21.689 10.0208 22.393 8.98082 22.393H7.64582V23.449C7.64582 23.801 7.42282 24 7.13482 24C6.87082 24 6.59182 23.801 6.59182 23.449V18.947H6.59082ZM7.64582 19.402V21.394H8.98082C9.51682 21.394 9.94082 20.921 9.94082 20.425C9.94082 19.866 9.51682 19.402 8.98082 19.402H7.64582Z" fill="white"/>
<path d="M11.9756 18.947C11.9756 18.683 12.1836 18.395 12.5196 18.395H14.3666C15.4066 18.395 16.3426 19.091 16.3426 20.425C16.3426 21.689 15.4066 22.393 14.3666 22.393H13.0316V23.449C13.0316 23.801 12.8076 24 12.5196 24C12.2556 24 11.9756 23.801 11.9756 23.449V18.947ZM13.0306 19.402V21.394H14.3656C14.9016 21.394 15.3256 20.921 15.3256 20.425C15.3256 19.866 14.9016 19.402 14.3656 19.402H13.0306Z" fill="white"/>
<path d="M18.8551 19.4671H17.4571C16.7611 19.4671 16.7611 18.4441 17.4571 18.4441H21.2381C21.9501 18.4441 21.9501 19.4671 21.2381 19.4671H19.9111V23.5051C19.9111 24.2001 18.8551 24.2171 18.8551 23.5051V19.4671Z" fill="white"/>
<path d="M25 27H6V28H25C25.55 28 26 27.55 26 27V26C26 26.55 25.55 27 25 27Z" fill="#CAD1D8"/>
</svg>
