<svg width="32" height="32" viewBox="0 0 32 32" fill="none" xmlns="http://www.w3.org/2000/svg">
<path d="M8 0C6.9 0 6 0.9 6 2V30C6 31.1 6.9 32 8 32H28C29.1 32 30 31.1 30 30V8L22 0H8Z" fill="#DFE3F1"/>
<path d="M24 8H30L22 0V6C22 7.1 22.9 8 24 8Z" fill="#B0B7BD"/>
<path d="M30 14L24 8H30V14Z" fill="#CAD1D8"/>
<path d="M26 26C26 26.55 25.55 27 25 27H3C2.45 27 2 26.55 2 26V16C2 15.45 2.45 15 3 15H25C25.55 15 26 15.45 26 16V26Z" fill="#84BD5A"/>
<path d="M7.2515 23.48C7.2515 24.175 6.1875 24.199 6.1875 23.496V18.955C6.1875 18.675 6.4045 18.467 6.6675 18.467H8.7945C10.8245 18.467 11.2405 21.186 9.5455 21.865L10.6085 23.16C11.0245 23.776 10.1935 24.367 9.7125 23.76L8.5055 22.033H7.2515V23.48ZM7.2515 21.113H8.7945C9.8335 21.113 9.8985 19.434 8.7945 19.434H7.2515V21.113Z" fill="white"/>
<path d="M18.3765 23.4798C18.3765 24.1748 17.3125 24.1988 17.3125 23.4958V18.9548C17.3125 18.6748 17.5295 18.4668 17.7925 18.4668H19.9195C21.9495 18.4668 22.3655 21.1858 20.6705 21.8648L21.7335 23.1598C22.1495 23.7758 21.3185 24.3668 20.8375 23.7598L19.6305 22.0328H18.3765V23.4798ZM18.3765 21.1128H19.9195C20.9585 21.1128 21.0235 19.4338 19.9195 19.4338H18.3765V21.1128Z" fill="white"/>
<path d="M11.4836 23.9999C11.2276 23.8549 11.0676 23.5679 11.2276 23.2319L13.5216 18.7469C13.7376 18.3229 14.3136 18.3069 14.5136 18.7469L16.7676 23.2319C17.0956 23.8549 16.1276 24.3509 15.8406 23.7279L15.4876 23.0239H12.5376L12.1936 23.7279C12.0666 23.9999 11.7706 24.0569 11.4836 23.9999ZM14.9216 21.9689L14.0186 19.9939L13.0356 21.9689H14.9216Z" fill="white"/>
<path d="M25 27H6V28H25C25.55 28 26 27.55 26 27V26C26 26.55 25.55 27 25 27Z" fill="#CAD1D8"/>
</svg>
