<svg width="32" height="32" viewBox="0 0 32 32" fill="none" xmlns="http://www.w3.org/2000/svg">
<mask id="mask0_1531_1605" style="mask-type:alpha" maskUnits="userSpaceOnUse" x="6" y="0" width="24" height="32">
<path d="M8 0C6.9 0 6 0.9 6 2V30C6 31.1 6.9 32 8 32H28C29.1 32 30 31.1 30 30V8L22 0H8Z" fill="#E2E5E7"/>
</mask>
<g mask="url(#mask0_1531_1605)">
<path d="M8 0C6.9 0 6 0.9 6 2V30C6 31.1 6.9 32 8 32H28C29.1 32 30 31.1 30 30V8L22 0H8Z" fill="#DFE3F1"/>
<path d="M24 8H30L22 0V6C22 7.1 22.9 8 24 8Z" fill="#B0B7BD"/>
<path d="M30 14L24 8H30V14Z" fill="#CAD1D8"/>
<path d="M25.125 20.1214C25.125 19.6532 24.7927 19.2508 24.333 19.1623L24.2676 19.1498C22.9952 18.9051 22.4122 17.4184 23.1781 16.374L23.2211 16.3154C23.5061 15.9269 23.4651 15.3885 23.1243 15.0478C22.7933 14.7168 22.274 14.6674 21.8865 14.9301L21.8315 14.9674C20.7592 15.6941 19.295 15.0552 19.0978 13.7751L19.0867 13.7027C19.0132 13.2265 18.6033 12.875 18.1214 12.875C17.6532 12.875 17.2509 13.2073 17.1623 13.6671L17.1017 13.9823C16.8624 15.2268 15.4285 15.8206 14.3793 15.1099L14.1135 14.9298C13.726 14.6673 13.2067 14.7168 12.8758 15.0477C12.535 15.3885 12.4939 15.927 12.779 16.3155L12.8219 16.374C13.5878 17.419 13.0048 18.9051 11.7324 19.1498L11.6668 19.1624C11.2072 19.2509 10.875 19.6531 10.875 20.1212C10.875 20.6031 11.2266 21.013 11.703 21.0862L11.7745 21.0972C13.0552 21.2944 13.6935 22.758 12.9668 23.8309L12.9295 23.8859C12.6668 24.2734 12.7162 24.7927 13.0472 25.1237C13.3879 25.4645 13.9263 25.5056 14.3148 25.2205L14.3734 25.1775C15.4184 24.4116 16.9045 24.9946 17.1492 26.267L17.162 26.3335C17.2507 26.793 17.6529 27.125 18.121 27.125H18.3185C18.6869 27.125 19.0003 26.8562 19.0563 26.4921C19.2576 25.1834 20.7758 24.5547 21.8433 25.3378C22.1401 25.5557 22.5516 25.5244 22.8119 25.264L22.9517 25.1243C23.2826 24.7933 23.332 24.274 23.0694 23.8866L23.032 23.8315C22.3053 22.7592 22.9442 21.295 24.2243 21.0978L24.2972 21.0866C24.7735 21.0131 25.125 20.6033 25.125 20.1214Z" fill="#BDC3C7"/>
<path d="M18 22.375C19.3117 22.375 20.375 21.3117 20.375 20C20.375 18.6883 19.3117 17.625 18 17.625C16.6883 17.625 15.625 18.6883 15.625 20C15.625 21.3117 16.6883 22.375 18 22.375Z" fill="white"/>
<path d="M17.9688 23C16.3318 23 15 21.6682 15 20.0312C15 18.3943 16.3318 17.0625 17.9688 17.0625C19.6057 17.0625 20.9375 18.3943 20.9375 20.0312C20.9375 21.6682 19.6057 23 17.9688 23ZM17.9688 18.25C16.9867 18.25 16.1875 19.0492 16.1875 20.0312C16.1875 21.0133 16.9867 21.8125 17.9688 21.8125C18.9508 21.8125 19.75 21.0133 19.75 20.0312C19.75 19.0492 18.9508 18.25 17.9688 18.25Z" fill="#ECF0F1"/>
</g>
</svg>
