<svg width="32" height="32" viewBox="0 0 32 32" fill="none" xmlns="http://www.w3.org/2000/svg">
<path d="M0 10.4677V27.0194C0 27.9574 0.71725 28.6746 1.65519 28.6746H30.3448C31.2827 28.6746 32 27.9574 32 27.0194V10.4677C32 9.52975 31.2827 8.8125 30.3448 8.8125H1.65519C0.71725 8.8125 0 9.58494 0 10.4677Z" fill="#F7B84E"/>
<path d="M29.2415 8.82755C29.2415 7.61374 28.2483 6.62068 27.0346 6.62068H18.207L15.4483 3.3103H3.31046C2.37252 3.3103 1.65527 4.08274 1.65527 4.96549V8.82755H29.2415Z" fill="#E4A12F"/>
<g clip-path="url(#clip0_1531_1591)">
<path fill-rule="evenodd" clip-rule="evenodd" d="M18.5519 14.1563C17.9881 14.1563 17.5311 14.6134 17.5311 15.1772C17.5311 15.741 17.9881 16.198 18.5519 16.198C19.1157 16.198 19.5728 15.741 19.5728 15.1772C19.5728 14.6134 19.1157 14.1563 18.5519 14.1563ZM16.5103 15.1772C16.5103 14.0496 17.4243 13.1355 18.5519 13.1355C19.6795 13.1355 20.5936 14.0496 20.5936 15.1772C20.5936 16.3047 19.6795 17.2188 18.5519 17.2188C17.4243 17.2188 16.5103 16.3047 16.5103 15.1772Z" fill="white"/>
<path fill-rule="evenodd" clip-rule="evenodd" d="M12.4269 17.7291C11.8631 17.7291 11.4061 18.1861 11.4061 18.7499C11.4061 19.3137 11.8631 19.7707 12.4269 19.7707C12.9907 19.7707 13.4478 19.3137 13.4478 18.7499C13.4478 18.1861 12.9907 17.7291 12.4269 17.7291ZM10.3853 18.7499C10.3853 17.6223 11.2993 16.7083 12.4269 16.7083C13.5545 16.7083 14.4686 17.6223 14.4686 18.7499C14.4686 19.8775 13.5545 20.7916 12.4269 20.7916C11.2993 20.7916 10.3853 19.8775 10.3853 18.7499Z" fill="white"/>
<path fill-rule="evenodd" clip-rule="evenodd" d="M18.5519 21.3021C17.9881 21.3021 17.5311 21.7591 17.5311 22.3229C17.5311 22.8867 17.9881 23.3437 18.5519 23.3437C19.1157 23.3437 19.5728 22.8867 19.5728 22.3229C19.5728 21.7591 19.1157 21.3021 18.5519 21.3021ZM16.5103 22.3229C16.5103 21.1953 17.4243 20.2812 18.5519 20.2812C19.6795 20.2812 20.5936 21.1953 20.5936 22.3229C20.5936 23.4505 19.6795 24.3646 18.5519 24.3646C17.4243 24.3646 16.5103 23.4505 16.5103 22.3229Z" fill="white"/>
<path fill-rule="evenodd" clip-rule="evenodd" d="M13.3083 19.2638C13.4502 19.0202 13.7627 18.9378 14.0063 19.0797L17.4924 21.1112C17.736 21.2531 17.8184 21.5656 17.6764 21.8092C17.5345 22.0527 17.222 22.1351 16.9784 21.9932L13.4923 19.9618C13.2487 19.8198 13.1663 19.5073 13.3083 19.2638Z" fill="white"/>
<path fill-rule="evenodd" clip-rule="evenodd" d="M17.6712 15.6905C17.8132 15.934 17.731 16.2465 17.4876 16.3886L14.0065 18.4201C13.7631 18.5621 13.4505 18.4799 13.3084 18.2365C13.1663 17.993 13.2485 17.6805 13.492 17.5384L16.973 15.5069C17.2165 15.3648 17.5291 15.447 17.6712 15.6905Z" fill="white"/>
</g>
<defs>
<clipPath id="clip0_1531_1591">
<rect width="12.25" height="12.25" fill="white" transform="translate(9.875 12.625)"/>
</clipPath>
</defs>
</svg>
