<svg width="32" height="32" viewBox="0 0 32 32" fill="none" xmlns="http://www.w3.org/2000/svg">
<path d="M8 0C6.9 0 6 0.9 6 2V30C6 31.1 6.9 32 8 32H28C29.1 32 30 31.1 30 30V8L22 0H8Z" fill="#DFE3F1"/>
<path d="M24 8H30L22 0V6C22 7.1 22.9 8 24 8Z" fill="#B0B7BD"/>
<path d="M30 14L24 8H30V14Z" fill="#CAD1D8"/>
<path d="M26 26C26 26.55 25.55 27 25 27H3C2.45 27 2 26.55 2 26V16C2 15.45 2.45 15 3 15H25C25.55 15 26 15.45 26 16V26Z" fill="#576D7E"/>
<path d="M8.29893 19.4673H6.89993C6.20393 19.4673 6.20393 18.4443 6.89993 18.4443H10.6819C11.3939 18.4443 11.3939 19.4673 10.6819 19.4673H9.35393V23.5043C9.35393 24.1993 8.29793 24.2164 8.29793 23.5043V19.4673H8.29893Z" fill="white"/>
<path d="M14.0259 20.3859L15.4179 18.6429C15.8339 18.0999 16.6409 18.7949 16.1859 19.3149C15.7059 19.8829 15.2029 20.4989 14.7219 21.1289L16.3539 23.1599C16.7929 23.7599 15.9139 24.3359 15.4819 23.7439L14.0109 21.8569L12.5639 23.7839C12.1559 24.3669 11.2519 23.7119 11.7089 23.1679L13.3149 21.1289C12.8119 20.4979 12.3239 19.8829 11.8359 19.3149C11.3319 18.7149 12.2679 18.0999 12.6349 18.6599L14.0259 20.3859Z" fill="white"/>
<path d="M18.6431 19.4668H17.2451C16.5491 19.4668 16.5491 18.4438 17.2451 18.4438H21.0261C21.7381 18.4438 21.7381 19.4668 21.0261 19.4668H19.6991V23.5039C19.6991 24.1989 18.6431 24.2159 18.6431 23.5039V19.4668Z" fill="white"/>
<path d="M25 27H6V28H25C25.55 28 26 27.55 26 27V26C26 26.55 25.55 27 25 27Z" fill="#CAD1D8"/>
</svg>
