<svg width="32" height="32" viewBox="0 0 32 32" fill="none" xmlns="http://www.w3.org/2000/svg">
<path d="M0 10.4677V27.0194C0 27.9574 0.71725 28.6746 1.65519 28.6746H30.3448C31.2827 28.6746 32 27.9574 32 27.0194V10.4677C32 9.52975 31.2827 8.8125 30.3448 8.8125H1.65519C0.71725 8.8125 0 9.58494 0 10.4677Z" fill="#F7B84E"/>
<path d="M29.2415 8.82755C29.2415 7.61374 28.2483 6.62068 27.0346 6.62068H18.207L15.4483 3.3103H3.31046C2.37252 3.3103 1.65527 4.08274 1.65527 4.96549V8.82755H29.2415Z" fill="#E4A12F"/>
<g clip-path="url(#clip0_1531_1592)">
<path fill-rule="evenodd" clip-rule="evenodd" d="M10.6225 20.5182C11.1011 20.0396 11.7502 19.7708 12.4271 19.7708H16.5104C17.1873 19.7708 17.8364 20.0396 18.315 20.5182C18.7936 20.9969 19.0625 21.646 19.0625 22.3228V23.3437C19.0625 23.6256 18.834 23.8541 18.5521 23.8541C18.2702 23.8541 18.0417 23.6256 18.0417 23.3437V22.3228C18.0417 21.9167 17.8803 21.5272 17.5932 21.2401C17.306 20.9529 16.9165 20.7916 16.5104 20.7916H12.4271C12.021 20.7916 11.6315 20.9529 11.3443 21.2401C11.0572 21.5272 10.8958 21.9167 10.8958 22.3228V23.3437C10.8958 23.6256 10.6673 23.8541 10.3854 23.8541C10.1035 23.8541 9.875 23.6256 9.875 23.3437V22.3228C9.875 21.646 10.1439 20.9969 10.6225 20.5182Z" fill="white"/>
<path fill-rule="evenodd" clip-rule="evenodd" d="M14.4686 14.6666C13.6229 14.6666 12.9373 15.3521 12.9373 16.1978C12.9373 17.0435 13.6229 17.7291 14.4686 17.7291C15.3143 17.7291 15.9998 17.0435 15.9998 16.1978C15.9998 15.3521 15.3143 14.6666 14.4686 14.6666ZM11.9165 16.1978C11.9165 14.7884 13.0591 13.6458 14.4686 13.6458C15.8781 13.6458 17.0207 14.7884 17.0207 16.1978C17.0207 17.6073 15.8781 18.7499 14.4686 18.7499C13.0591 18.7499 11.9165 17.6073 11.9165 16.1978Z" fill="white"/>
<path fill-rule="evenodd" clip-rule="evenodd" d="M19.5891 20.2201C19.6596 19.9472 19.938 19.783 20.2109 19.8535C20.7584 19.9949 21.2435 20.314 21.5899 20.761C21.9363 21.2079 22.1245 21.7572 22.125 22.3226L22.125 23.3438C22.125 23.6257 21.8964 23.8543 21.6145 23.8543C21.3326 23.8543 21.1041 23.6257 21.1041 23.3438L21.1041 22.3234C21.1041 22.3233 21.1041 22.3234 21.1041 22.3234C21.1038 21.9842 20.9909 21.6545 20.7831 21.3864C20.5752 21.1182 20.2842 20.9267 19.9557 20.8419C19.6827 20.7714 19.5186 20.493 19.5891 20.2201Z" fill="white"/>
<path fill-rule="evenodd" clip-rule="evenodd" d="M17.5473 14.0959C17.6172 13.8228 17.8953 13.6581 18.1684 13.728C18.7174 13.8685 19.2039 14.1878 19.5514 14.6355C19.8989 15.0831 20.0875 15.6336 20.0875 16.2003C20.0875 16.767 19.8989 17.3175 19.5514 17.7652C19.2039 18.2128 18.7174 18.5321 18.1684 18.6726C17.8953 18.7426 17.6172 18.5779 17.5473 18.3048C17.4774 18.0317 17.6421 17.7536 17.9152 17.6837C18.2446 17.5994 18.5365 17.4078 18.745 17.1392C18.9535 16.8707 19.0666 16.5403 19.0666 16.2003C19.0666 15.8603 18.9535 15.53 18.745 15.2614C18.5365 14.9928 18.2446 14.8013 17.9152 14.7169C17.6421 14.647 17.4774 14.3689 17.5473 14.0959Z" fill="white"/>
</g>
<defs>
<clipPath id="clip0_1531_1592">
<rect width="12.25" height="12.25" fill="white" transform="translate(9.875 12.625)"/>
</clipPath>
</defs>
</svg>
