<svg width="32" height="32" viewBox="0 0 32 32" fill="none" xmlns="http://www.w3.org/2000/svg">
<path d="M0 10.4677V27.0194C0 27.9574 0.71725 28.6746 1.65519 28.6746H30.3448C31.2827 28.6746 32 27.9574 32 27.0194V10.4677C32 9.52975 31.2827 8.8125 30.3448 8.8125H1.65519C0.71725 8.8125 0 9.58494 0 10.4677Z" fill="#F7B84E"/>
<path d="M29.2415 8.82755C29.2415 7.61374 28.2483 6.62068 27.0346 6.62068H18.207L15.4483 3.3103H3.31046C2.37252 3.3103 1.65527 4.08274 1.65527 4.96549V8.82755H29.2415Z" fill="#E4A12F"/>
<g clip-path="url(#clip0_1531_1593)">
<path fill-rule="evenodd" clip-rule="evenodd" d="M23.4012 13.3905C23.1193 13.3905 22.8908 13.6191 22.8908 13.901C22.8908 14.1829 23.1193 14.4114 23.4012 14.4114C23.6831 14.4114 23.9116 14.1829 23.9116 13.901C23.9116 13.6191 23.6831 13.3905 23.4012 13.3905ZM22.3804 13.901C22.3804 13.3372 22.8374 12.8801 23.4012 12.8801C23.965 12.8801 24.422 13.3372 24.422 13.901C24.422 14.4648 23.965 14.9218 23.4012 14.9218C22.8374 14.9218 22.3804 14.4648 22.3804 13.901Z" fill="white"/>
<path fill-rule="evenodd" clip-rule="evenodd" d="M20.3387 15.1772C20.0568 15.1772 19.8283 15.4057 19.8283 15.6876C19.8283 15.9695 20.0568 16.198 20.3387 16.198C20.6206 16.198 20.8491 15.9695 20.8491 15.6876C20.8491 15.4057 20.6206 15.1772 20.3387 15.1772ZM19.3179 15.6876C19.3179 15.1238 19.7749 14.6667 20.3387 14.6667C20.9025 14.6667 21.3595 15.1238 21.3595 15.6876C21.3595 16.2514 20.9025 16.7084 20.3387 16.7084C19.7749 16.7084 19.3179 16.2514 19.3179 15.6876Z" fill="white"/>
<path fill-rule="evenodd" clip-rule="evenodd" d="M23.4012 16.9635C23.1193 16.9635 22.8908 17.1921 22.8908 17.474C22.8908 17.7559 23.1193 17.9844 23.4012 17.9844C23.6831 17.9844 23.9116 17.7559 23.9116 17.474C23.9116 17.1921 23.6831 16.9635 23.4012 16.9635ZM22.3804 17.474C22.3804 16.9102 22.8374 16.4531 23.4012 16.4531C23.965 16.4531 24.422 16.9102 24.422 17.474C24.422 18.0377 23.965 18.4948 23.4012 18.4948C22.8374 18.4948 22.3804 18.0377 22.3804 17.474Z" fill="white"/>
<path fill-rule="evenodd" clip-rule="evenodd" d="M20.7789 15.9444C20.8499 15.8226 21.0061 15.7814 21.1279 15.8524L22.871 16.8681C22.9927 16.9391 23.0339 17.0953 22.963 17.2171C22.892 17.3389 22.7358 17.3801 22.614 17.3091L20.8709 16.2934C20.7491 16.2224 20.7079 16.0662 20.7789 15.9444Z" fill="white"/>
<path fill-rule="evenodd" clip-rule="evenodd" d="M22.9603 14.1579C23.0314 14.2796 22.9903 14.4359 22.8685 14.5069L21.128 15.5226C21.0063 15.5937 20.85 15.5526 20.779 15.4309C20.7079 15.3091 20.749 15.1529 20.8708 15.0818L22.6113 14.0661C22.733 13.995 22.8893 14.0361 22.9603 14.1579Z" fill="white"/>
</g>
<g clip-path="url(#clip1_1531_1593)">
<path fill-rule="evenodd" clip-rule="evenodd" d="M7.55999 20.5182C8.0386 20.0396 8.68773 19.7708 9.36458 19.7708H13.4479C14.1248 19.7708 14.7739 20.0396 15.2525 20.5182C15.7311 20.9969 16 21.646 16 22.3228V23.3437C16 23.6256 15.7715 23.8541 15.4896 23.8541C15.2077 23.8541 14.9792 23.6256 14.9792 23.3437V22.3228C14.9792 21.9167 14.8178 21.5272 14.5307 21.2401C14.2435 20.9529 13.854 20.7916 13.4479 20.7916H9.36458C8.95847 20.7916 8.56899 20.9529 8.28183 21.2401C7.99466 21.5272 7.83333 21.9167 7.83333 22.3228V23.3437C7.83333 23.6256 7.60481 23.8541 7.32292 23.8541C7.04102 23.8541 6.8125 23.6256 6.8125 23.3437V22.3228C6.8125 21.646 7.08138 20.9969 7.55999 20.5182Z" fill="white"/>
<path fill-rule="evenodd" clip-rule="evenodd" d="M11.4061 14.6666C10.5604 14.6666 9.87484 15.3521 9.87484 16.1978C9.87484 17.0435 10.5604 17.7291 11.4061 17.7291C12.2518 17.7291 12.9373 17.0435 12.9373 16.1978C12.9373 15.3521 12.2518 14.6666 11.4061 14.6666ZM8.854 16.1978C8.854 14.7884 9.99661 13.6458 11.4061 13.6458C12.8156 13.6458 13.9582 14.7884 13.9582 16.1978C13.9582 17.6073 12.8156 18.7499 11.4061 18.7499C9.99661 18.7499 8.854 17.6073 8.854 16.1978Z" fill="white"/>
<path fill-rule="evenodd" clip-rule="evenodd" d="M16.5266 20.2201C16.5971 19.9472 16.8755 19.783 17.1484 19.8535C17.6959 19.9949 18.181 20.314 18.5274 20.761C18.8738 21.2079 19.062 21.7572 19.0625 22.3226L19.0625 23.3438C19.0625 23.6257 18.8339 23.8543 18.552 23.8543C18.2701 23.8543 18.0416 23.6257 18.0416 23.3438L18.0416 22.3234C18.0416 22.3233 18.0416 22.3234 18.0416 22.3234C18.0413 21.9842 17.9284 21.6545 17.7206 21.3864C17.5127 21.1182 17.2217 20.9267 16.8932 20.8419C16.6202 20.7714 16.4561 20.493 16.5266 20.2201Z" fill="white"/>
<path fill-rule="evenodd" clip-rule="evenodd" d="M14.4848 14.0959C14.5547 13.8228 14.8328 13.6581 15.1059 13.728C15.6549 13.8685 16.1414 14.1878 16.4889 14.6355C16.8364 15.0831 17.025 15.6336 17.025 16.2003C17.025 16.767 16.8364 17.3175 16.4889 17.7652C16.1414 18.2128 15.6549 18.5321 15.1059 18.6726C14.8328 18.7426 14.5547 18.5779 14.4848 18.3048C14.4149 18.0317 14.5796 17.7536 14.8527 17.6837C15.1821 17.5994 15.474 17.4078 15.6825 17.1392C15.891 16.8707 16.0041 16.5403 16.0041 16.2003C16.0041 15.8603 15.891 15.53 15.6825 15.2614C15.474 14.9928 15.1821 14.8013 14.8527 14.7169C14.5796 14.647 14.4149 14.3689 14.4848 14.0959Z" fill="white"/>
</g>
<defs>
<clipPath id="clip0_1531_1593">
<rect width="6.125" height="6.125" fill="white" transform="translate(19.0625 12.625)"/>
</clipPath>
<clipPath id="clip1_1531_1593">
<rect width="12.25" height="12.25" fill="white" transform="translate(6.8125 12.625)"/>
</clipPath>
</defs>
</svg>
