<svg width="32" height="32" viewBox="0 0 32 32" fill="none" xmlns="http://www.w3.org/2000/svg">
<mask id="mask0_1531_1604" style="mask-type:alpha" maskUnits="userSpaceOnUse" x="6" y="0" width="24" height="32">
<path d="M8 0C6.9 0 6 0.9 6 2V30C6 31.1 6.9 32 8 32H28C29.1 32 30 31.1 30 30V8L22 0H8Z" fill="#E2E5E7"/>
</mask>
<g mask="url(#mask0_1531_1604)">
<path d="M8 0C6.9 0 6 0.9 6 2V30C6 31.1 6.9 32 8 32H28C29.1 32 30 31.1 30 30V8L22 0H8Z" fill="#DFE3F1"/>
<path d="M24 8H30L22 0V6C22 7.1 22.9 8 24 8Z" fill="#B0B7BD"/>
<path d="M30 14L24 8H30V14Z" fill="#CAD1D8"/>
<path d="M14.7869 26.9519C14.1211 27.3756 13.25 26.8974 13.25 26.1083V20.7581V15.5016C13.25 14.7125 14.1212 14.2343 14.7869 14.658L23.1207 19.9613C23.7382 20.3542 23.7382 21.2556 23.1207 21.6486L14.7869 26.9519Z" fill="#BDC3C7"/>
<path d="M16.1043 23.7373C15.7884 23.9389 15.375 23.7114 15.375 23.3359V20.7902V18.2891C15.375 17.9136 15.7884 17.6861 16.1043 17.8877L20.0591 20.4111C20.3521 20.598 20.3521 21.027 20.0591 21.2139L16.1043 23.7373Z" fill="#ECF0F1"/>
</g>
</svg>
