<svg width="32" height="32" viewBox="0 0 32 32" fill="none" xmlns="http://www.w3.org/2000/svg">
<path d="M8 0C6.9 0 6 0.9 6 2V30C6 31.1 6.9 32 8 32H28C29.1 32 30 31.1 30 30V8L22 0H8Z" fill="#DFE3F1"/>
<path d="M24 8H30L22 0V6C22 7.1 22.9 8 24 8Z" fill="#B0B7BD"/>
<path d="M30 14L24 8H30V14Z" fill="#CAD1D8"/>
<path d="M26 26C26 26.55 25.55 27 25 27H3C2.45 27 2 26.55 2 26V16C2 15.45 2.45 15 3 15H25C25.55 15 26 15.45 26 16V26Z" fill="#A066AA"/>
<path d="M8.28986 24C7.78586 24 7.58586 23.513 7.87386 23.169L10.7209 19.387H8.36086C7.66586 19.387 7.72186 18.405 8.36086 18.405H11.5839C12.1909 18.405 12.3669 18.979 11.9359 19.444L9.20886 22.985H11.8079C12.4479 22.985 12.5279 24.001 11.7449 24.001H8.28986V24Z" fill="white"/>
<path d="M13.2529 18.9471C13.2529 18.2911 14.3089 18.2671 14.3089 18.9471V23.5121C14.3089 24.1751 13.2529 24.1921 13.2529 23.5121V18.9471Z" fill="white"/>
<path d="M15.7261 18.947C15.7261 18.683 15.9341 18.395 16.2701 18.395H18.1171C19.1571 18.395 20.0931 19.091 20.0931 20.425C20.0931 21.689 19.1571 22.393 18.1171 22.393H16.7821V23.449C16.7821 23.801 16.5581 24 16.2701 24C16.0061 24 15.7261 23.801 15.7261 23.449V18.947ZM16.7811 19.402V21.394H18.1161C18.6521 21.394 19.0761 20.921 19.0761 20.425C19.0761 19.866 18.6521 19.402 18.1161 19.402H16.7811Z" fill="white"/>
<path d="M25 27H6V28H25C25.55 28 26 27.55 26 27V26C26 26.55 25.55 27 25 27Z" fill="#CAD1D8"/>
</svg>
