<svg width="24" height="24" viewBox="0 0 24 24" fill="none" xmlns="http://www.w3.org/2000/svg">
<path d="M12.0119 18C11.4616 18 11.0002 18.456 11.0002 19C11.0002 19.544 11.4616 20 12.0119 20C12.542 20 13.0236 19.544 12.9993 19.024C13.0236 18.452 12.5663 18 12.0119 18Z" fill="#E24826"/>
<path d="M11.7646 10.0311C11.2933 10.1806 11.0002 10.6558 11.0002 11.2321C11.024 11.5797 11.0438 11.9317 11.0676 12.2792C11.1349 13.6035 11.2022 14.9014 11.2695 16.2257C11.2933 16.6744 11.6062 17 12.0101 17C12.4141 17 12.7309 16.6524 12.7507 16.1993C12.7507 15.9265 12.7507 15.6757 12.7745 15.3985C12.8181 14.5494 12.8656 13.7003 12.9092 12.8512C12.9329 12.3012 12.9765 11.7513 13.0002 11.2013C13.0002 11.0034 12.9765 10.8274 12.9092 10.6514C12.7072 10.1586 12.2359 9.90786 11.7646 10.0311Z" fill="#E24826"/>
<path fill-rule="evenodd" clip-rule="evenodd" d="M22.3925 21.5L12.0002 3.5L1.60794 21.5H22.3925ZM12.8663 3C12.4814 2.33333 11.5191 2.33333 11.1342 3L0.741912 21C0.357012 21.6667 0.838136 22.5 1.60794 22.5H22.3925C23.1623 22.5 23.6435 21.6667 23.2586 21L12.8663 3Z" fill="#E24826"/>
</svg>
