<svg width="20" height="20" viewBox="0 0 20 20" fill="none" xmlns="http://www.w3.org/2000/svg">
<path fill-rule="evenodd" clip-rule="evenodd" d="M2 5.00009C2 4.72394 2.22386 4.50009 2.5 4.50009H17.5C17.7761 4.50009 18 4.72394 18 5.00009C18 5.27623 17.7761 5.50009 17.5 5.50009H2.5C2.22386 5.50009 2 5.27623 2 5.00009Z" fill="#373737"/>
<path fill-rule="evenodd" clip-rule="evenodd" d="M8.33334 2.16675C8.02392 2.16675 7.72718 2.28966 7.50838 2.50846C7.28959 2.72725 7.16667 3.024 7.16667 3.33341V4.50008H12.8333V3.33341C12.8333 3.024 12.7104 2.72725 12.4916 2.50846C12.2728 2.28966 11.9761 2.16675 11.6667 2.16675H8.33334ZM13.8333 4.50008V3.33341C13.8333 2.75878 13.6051 2.20768 13.1987 1.80135C12.7924 1.39502 12.2413 1.16675 11.6667 1.16675H8.33334C7.75871 1.16675 7.20761 1.39502 6.80128 1.80135C6.39495 2.20768 6.16667 2.75878 6.16667 3.33341V4.50008H4.16667C3.89053 4.50008 3.66667 4.72394 3.66667 5.00008V16.6667C3.66667 17.2414 3.89495 17.7925 4.30128 18.1988C4.7076 18.6051 5.2587 18.8334 5.83334 18.8334H14.1667C14.7413 18.8334 15.2924 18.6051 15.6987 18.1988C16.1051 17.7925 16.3333 17.2414 16.3333 16.6667V5.00008C16.3333 4.72394 16.1095 4.50008 15.8333 4.50008H13.8333ZM4.66667 5.50008V16.6667C4.66667 16.9762 4.78959 17.2729 5.00838 17.4917C5.22717 17.7105 5.52392 17.8334 5.83334 17.8334H14.1667C14.4761 17.8334 14.7728 17.7105 14.9916 17.4917C15.2104 17.2729 15.3333 16.9762 15.3333 16.6667V5.50008H4.66667Z" fill="#373737"/>
<path fill-rule="evenodd" clip-rule="evenodd" d="M8.33332 8.66675C8.60947 8.66675 8.83332 8.89061 8.83332 9.16675V14.1667C8.83332 14.4429 8.60947 14.6667 8.33332 14.6667C8.05718 14.6667 7.83332 14.4429 7.83332 14.1667V9.16675C7.83332 8.89061 8.05718 8.66675 8.33332 8.66675Z" fill="#373737"/>
<path fill-rule="evenodd" clip-rule="evenodd" d="M11.6667 8.66675C11.9428 8.66675 12.1667 8.89061 12.1667 9.16675V14.1667C12.1667 14.4429 11.9428 14.6667 11.6667 14.6667C11.3905 14.6667 11.1667 14.4429 11.1667 14.1667V9.16675C11.1667 8.89061 11.3905 8.66675 11.6667 8.66675Z" fill="#373737"/>
</svg>
