<svg width="20" height="20" viewBox="0 0 20 20" fill="none" xmlns="http://www.w3.org/2000/svg">
<path fill-rule="evenodd" clip-rule="evenodd" d="M3.33317 3.83342C3.02375 3.83342 2.72701 3.95634 2.50821 4.17513C2.28942 4.39392 2.1665 4.69067 2.1665 5.00009V16.6668C2.1665 16.9762 2.28942 17.2729 2.50821 17.4917C2.72701 17.7105 3.02375 17.8334 3.33317 17.8334H14.9998C15.3093 17.8334 15.606 17.7105 15.8248 17.4917C16.0436 17.2729 16.1665 16.9762 16.1665 16.6668V12.2168C16.1665 11.9406 16.3904 11.7168 16.6665 11.7168C16.9426 11.7168 17.1665 11.9406 17.1665 12.2168V16.6668C17.1665 17.2414 16.9382 17.7925 16.5319 18.1988C16.1256 18.6051 15.5745 18.8334 14.9998 18.8334H3.33317C2.75853 18.8334 2.20743 18.6051 1.80111 18.1988C1.39478 17.7925 1.1665 17.2414 1.1665 16.6668V5.00009C1.1665 4.42545 1.39478 3.87435 1.80111 3.46802C2.20743 3.0617 2.75853 2.83342 3.33317 2.83342H7.78317C8.05931 2.83342 8.28317 3.05728 8.28317 3.33342C8.28317 3.60957 8.05931 3.83342 7.78317 3.83342H3.33317Z" fill="#373737"/>
<path fill-rule="evenodd" clip-rule="evenodd" d="M14.6463 1.31319C14.8415 1.11793 15.1581 1.11793 15.3534 1.31319L18.6867 4.64653C18.7805 4.7403 18.8332 4.86747 18.8332 5.00008C18.8332 5.13269 18.7805 5.25987 18.6867 5.35364L10.3534 13.687C10.2596 13.7807 10.1324 13.8334 9.99984 13.8334H6.6665C6.39036 13.8334 6.1665 13.6096 6.1665 13.3334V10.0001C6.1665 9.86747 6.21918 9.7403 6.31295 9.64653L14.6463 1.31319ZM7.1665 10.2072V12.8334H9.79273L17.6261 5.00008L14.9998 2.37385L7.1665 10.2072Z" fill="#373737"/>
</svg>
