<svg width="20" height="20" viewBox="0 0 20 20" fill="none" xmlns="http://www.w3.org/2000/svg">
<path fill-rule="evenodd" clip-rule="evenodd" d="M3.33341 3.83342C3.024 3.83342 2.72725 3.95634 2.50846 4.17513C2.28966 4.39392 2.16675 4.69067 2.16675 5.00009V16.6668C2.16675 16.9762 2.28966 17.2729 2.50846 17.4917C2.72725 17.7105 3.024 17.8334 3.33341 17.8334H15.0001C15.3095 17.8334 15.6062 17.7105 15.825 17.4917C16.0438 17.2729 16.1667 16.9762 16.1667 16.6668V12.2168C16.1667 11.9406 16.3906 11.7168 16.6667 11.7168C16.9429 11.7168 17.1667 11.9406 17.1667 12.2168V16.6668C17.1667 17.2414 16.9385 17.7925 16.5321 18.1988C16.1258 18.6051 15.5747 18.8334 15.0001 18.8334H3.33341C2.75878 18.8334 2.20768 18.6051 1.80135 18.1988C1.39502 17.7925 1.16675 17.2414 1.16675 16.6668V5.00009C1.16675 4.42545 1.39502 3.87435 1.80135 3.46802C2.20768 3.0617 2.75878 2.83342 3.33341 2.83342H7.78341C8.05956 2.83342 8.28341 3.05728 8.28341 3.33342C8.28341 3.60957 8.05956 3.83342 7.78341 3.83342H3.33341Z" fill="white"/>
<path fill-rule="evenodd" clip-rule="evenodd" d="M14.6465 1.31319C14.8418 1.11793 15.1584 1.11793 15.3536 1.31319L18.687 4.64653C18.7807 4.7403 18.8334 4.86747 18.8334 5.00008C18.8334 5.13269 18.7807 5.25987 18.687 5.35364L10.3536 13.687C10.2599 13.7807 10.1327 13.8334 10.0001 13.8334H6.66675C6.39061 13.8334 6.16675 13.6096 6.16675 13.3334V10.0001C6.16675 9.86747 6.21943 9.7403 6.31319 9.64653L14.6465 1.31319ZM7.16675 10.2072V12.8334H9.79298L17.6263 5.00008L15.0001 2.37385L7.16675 10.2072Z" fill="white"/>
</svg>
