<svg width="211" height="46" viewBox="0 0 211 46" fill="none" xmlns="http://www.w3.org/2000/svg">
<g clip-path="url(#clip0_1665_1690)">
<path d="M18.3754 23.0623H7.79369L6.20961 26.9785H0L10.3282 2.17578H15.8408L26.1691 26.9785H19.9595L18.3754 23.0623ZM9.82132 18.1515H16.3477L13.3063 10.692L13.1162 9.88389H13.0529L12.8628 10.692L9.82132 18.1515Z" fill="#373737"/>
<path d="M25.979 1.36743H31.7451V27.0404H25.979V1.36743Z" fill="#373737"/>
<path d="M32.8223 17.592C32.8223 16.2244 33.0757 14.919 33.5826 13.6758C34.0895 12.4325 34.8499 11.3758 35.8003 10.5055C36.7508 9.63524 37.8913 8.8893 39.1586 8.32984C40.4892 7.83254 41.8832 7.52173 43.4673 7.52173C45.0514 7.52173 46.5087 7.77038 47.8394 8.32984C49.17 8.8893 50.3105 9.57308 51.261 10.5055C52.2114 11.4379 52.9718 12.4947 53.4787 13.6758C53.9856 14.919 54.2391 16.2244 54.2391 17.592C54.2391 17.965 54.2391 18.2758 54.1757 18.5244C54.1757 18.7731 54.1123 18.9596 54.049 19.2082H38.6517C38.7784 19.8298 39.0319 20.3271 39.3487 20.8244C39.6655 21.3217 40.0457 21.6947 40.4892 22.0055C40.9328 22.3163 41.3763 22.6271 41.8832 22.7515C42.3901 22.9379 42.897 23.0001 43.4673 23.0001C44.3544 23.0001 45.1781 22.8136 45.8117 22.4406C46.5087 22.0677 47.0156 21.5704 47.3325 21.0109H53.5421C53.2886 21.819 52.8451 22.6271 52.2114 23.4352C51.6412 24.2433 50.8808 24.9271 50.0571 25.5488C49.2334 26.1704 48.2195 26.6677 47.079 27.0406C45.9385 27.4136 44.7346 27.6001 43.4039 27.6001C41.8199 27.6001 40.3625 27.3515 39.0952 26.792C37.7646 26.2947 36.6874 25.5488 35.737 24.6163C34.7865 23.6839 34.0895 22.6271 33.5193 21.446C33.0757 20.265 32.8223 18.9596 32.8223 17.592ZM43.5307 12.2461C42.5169 12.2461 41.6298 12.4947 40.806 13.0542C39.9823 13.6136 39.412 14.2974 39.0319 15.2298H48.0928C47.9027 14.7947 47.6493 14.3596 47.3325 13.9866C47.0156 13.6136 46.6988 13.3028 46.2553 13.0542C45.8751 12.8055 45.4316 12.619 44.988 12.4325C44.4811 12.3082 44.0376 12.2461 43.5307 12.2461Z" fill="#373737"/>
<path d="M59.4986 21.0729C59.562 21.6324 59.8788 22.1296 60.3857 22.4405C60.956 22.8134 61.653 22.9378 62.4767 22.9378C63.5536 22.9378 64.3773 22.8134 64.8209 22.5026C65.3278 22.254 65.5179 21.8188 65.5179 21.3215C65.5179 21.0107 65.3911 20.7621 65.2011 20.5756C64.9476 20.3891 64.6308 20.2026 64.1872 20.0783C63.7437 19.954 63.237 19.8296 62.6034 19.7053C61.9698 19.581 61.2728 19.4567 60.3857 19.2702C60.0055 19.208 59.6253 19.0837 59.1818 19.0215C58.7382 18.8972 58.2947 18.7729 57.8512 18.5864C57.4076 18.3999 56.9641 18.2134 56.5839 17.9026C56.2037 17.654 55.8235 17.3432 55.5067 16.908C55.1899 16.5351 54.9364 16.0378 54.7463 15.5405C54.5563 14.981 54.4929 14.3594 54.4929 13.6134C54.4929 12.681 54.683 11.8107 54.9998 11.0026C55.38 10.2567 55.8869 9.57289 56.5839 9.0756C57.2809 8.5783 58.2313 8.14316 59.3085 7.83235C60.3857 7.52154 61.653 7.39722 63.1737 7.39722C64.3773 7.39722 65.4545 7.52154 66.405 7.83235C67.3554 8.14316 68.1791 8.5783 68.8761 9.13776C69.5731 9.69722 70.08 10.381 70.3968 11.1269C70.777 11.8729 70.9038 12.7432 70.9038 13.6756H65.1377C65.0743 13.2405 64.8842 12.8053 64.4407 12.4945C64.0605 12.1837 63.4269 11.9972 62.7301 11.9972C61.843 11.9972 61.2094 12.1837 60.7659 12.4945C60.3223 12.8053 60.1322 13.1783 60.1322 13.6134C60.1322 13.8621 60.1956 14.0486 60.3223 14.2351C60.4491 14.4215 60.7025 14.5459 61.0193 14.6702C61.3361 14.7945 61.7163 14.8567 62.1599 14.981C62.6034 15.0432 63.1737 15.1675 63.8704 15.2297C64.8842 15.4161 65.8347 15.6026 66.7851 15.8513C67.6722 16.0999 68.4959 16.4107 69.1929 16.8459C69.8899 17.281 70.4602 17.8405 70.8404 18.4621C71.2206 19.0837 71.474 20.0161 71.474 21.0107C71.474 22.1297 71.2206 23.1242 70.777 23.9324C70.3335 24.7405 69.6998 25.4242 68.8761 25.9837C68.0524 26.5432 67.102 26.9161 65.9614 27.1648C64.8209 27.4134 63.5536 27.5378 62.2232 27.5378C60.7659 27.5378 59.4352 27.3513 58.4214 26.9783C57.4076 26.6053 56.5205 26.108 55.8235 25.4864C55.1265 24.8648 54.6196 24.181 54.3028 23.3729C53.986 22.5648 53.7959 21.8188 53.7959 21.0107L59.4986 21.0729Z" fill="#373737"/>
<path d="M72.4878 1.36743H78.2539V16.162L84.6536 8.14307H91.3701L84.907 16.0377L92.0037 27.0404H85.1605L80.7884 19.7053L78.2539 22.6269V27.0404H72.4878V1.36743Z" fill="#373737"/>
<path d="M89.4058 17.592C89.4058 16.2244 89.6592 14.919 90.1661 13.6758C90.673 12.4325 91.4334 11.3758 92.3838 10.5055C93.3343 9.63524 94.4748 8.8893 95.7421 8.32984C97.0727 7.83254 98.4667 7.52173 100.051 7.52173C101.635 7.52173 103.092 7.77038 104.423 8.32984C105.754 8.8893 106.894 9.57308 107.844 10.5055C108.795 11.4379 109.555 12.4947 110.062 13.6758C110.569 14.919 110.823 16.2244 110.823 17.592C110.823 17.965 110.823 18.2758 110.759 18.5244C110.759 18.7731 110.696 18.9596 110.632 19.2082H95.2352C95.3619 19.8298 95.6154 20.3271 95.9322 20.8244C96.249 21.3217 96.6292 21.6947 97.0727 22.0055C97.5163 22.3163 97.9598 22.6271 98.4667 22.7515C98.9736 22.9379 99.4805 23.0001 100.051 23.0001C100.938 23.0001 101.762 22.8136 102.395 22.4406C103.092 22.0677 103.599 21.5704 103.916 21.0109H110.126C109.872 21.819 109.429 22.6271 108.795 23.4352C108.225 24.2433 107.464 24.9271 106.641 25.5488C105.817 26.1704 104.803 26.6677 103.663 27.0406C102.522 27.4136 101.318 27.6001 99.9874 27.6001C98.4034 27.6001 96.946 27.3515 95.6787 26.792C94.3481 26.2947 93.2709 25.5488 92.3205 24.6163C91.37 23.6839 90.673 22.6271 90.1028 21.446C89.6592 20.265 89.4058 18.9596 89.4058 17.592ZM100.114 12.2461C99.1003 12.2461 98.2133 12.4947 97.3895 13.0542C96.5658 13.6136 95.9955 14.2974 95.6154 15.2298H104.676C104.486 14.7947 104.233 14.3596 103.916 13.9866C103.599 13.6136 103.282 13.3028 102.839 13.0542C102.459 12.8055 102.015 12.619 101.572 12.4325C101.128 12.3082 100.621 12.2461 100.114 12.2461Z" fill="#373737"/>
<path d="M125.016 12.9919H122.608C121.024 12.9919 119.82 13.427 118.933 14.2973C118.046 15.1675 117.603 16.4729 117.603 18.2135V26.9784H111.9V8.08105H116.525L116.969 9.88376C117.603 9.38646 118.363 8.95133 119.25 8.57835C120.137 8.26754 121.151 8.08105 122.355 8.08105H125.079V12.9919H125.016Z" fill="#373737"/>
<path d="M124.256 17.592C124.256 16.2244 124.509 14.919 125.016 13.6758C125.523 12.4325 126.283 11.3758 127.234 10.5055C128.184 9.63524 129.325 8.8893 130.592 8.32984C131.859 7.77038 133.38 7.52173 134.964 7.52173C136.548 7.52173 138.006 7.77038 139.336 8.32984C140.667 8.8893 141.807 9.57308 142.758 10.5055C143.708 11.4379 144.469 12.4947 144.976 13.6758C145.483 14.8569 145.736 16.2244 145.736 17.592C145.736 18.9596 145.483 20.265 144.976 21.5082C144.469 22.7515 143.708 23.8082 142.758 24.6785C141.807 25.5488 140.667 26.2947 139.336 26.8542C138.006 27.4136 136.548 27.6623 134.964 27.6623C133.38 27.6623 131.986 27.4136 130.656 26.8542C129.325 26.2947 128.248 25.6109 127.297 24.6785C126.347 23.746 125.65 22.6893 125.08 21.5082C124.509 20.3271 124.256 18.9596 124.256 17.592ZM129.959 17.5298C129.959 18.3379 130.085 19.0217 130.339 19.6433C130.592 20.265 130.972 20.8244 131.416 21.3217C131.859 21.7569 132.43 22.1298 133 22.3785C133.634 22.6271 134.267 22.7515 134.964 22.7515C135.661 22.7515 136.295 22.6271 136.929 22.3785C137.562 22.1298 138.069 21.7569 138.513 21.3217C138.956 20.8866 139.336 20.3271 139.59 19.6433C139.843 19.0217 139.97 18.2758 139.97 17.4677C139.97 16.7217 139.843 15.9758 139.59 15.3542C139.336 14.7325 138.956 14.1731 138.513 13.7379C138.069 13.3028 137.562 12.9298 136.929 12.6812C136.295 12.4325 135.661 12.3082 134.964 12.3082C134.267 12.3082 133.634 12.4325 133 12.6812C132.366 12.9298 131.859 13.3028 131.416 13.7379C130.972 14.1731 130.592 14.7325 130.339 15.3542C130.085 15.9758 129.959 16.7839 129.959 17.5298Z" fill="#373737"/>
<path d="M148.271 12.9297H144.722V8.08108H148.271V7.3973C148.271 6.52703 148.397 5.65676 148.587 4.78649C148.841 3.91622 149.221 3.1081 149.728 2.42432C150.298 1.74053 150.995 1.11893 151.882 0.68379C152.769 0.248652 153.91 0 155.304 0H159.169V4.59999H156.698C156.191 4.59999 155.747 4.66216 155.431 4.84864C155.114 4.97297 154.797 5.22162 154.607 5.47026C154.417 5.71891 154.227 6.02972 154.163 6.4027C154.1 6.77568 154.037 7.14865 154.037 7.52162V8.14324H159.169V12.9919H154.037V27.0405H148.271V12.9297Z" fill="#373737"/>
<path d="M161.196 12.9297H157.648V8.08108H161.196V7.3973C161.196 6.52703 161.323 5.65676 161.513 4.78649C161.767 3.91622 162.147 3.1081 162.654 2.42432C163.224 1.74053 163.921 1.11893 164.808 0.68379C165.695 0.248652 166.836 0 168.23 0H172.095V4.59999H169.624C169.117 4.59999 168.673 4.66216 168.356 4.84864C168.04 4.97297 167.723 5.22162 167.533 5.47026C167.343 5.71891 167.152 6.02972 167.089 6.4027C167.026 6.77568 166.962 7.14865 166.962 7.52162V8.14324H172.095V12.9919H166.962V27.0405H161.196V12.9297Z" fill="#373737"/>
<path d="M191.23 12.9919H188.823C187.239 12.9919 186.035 13.427 185.148 14.2973C184.261 15.1675 183.817 16.4729 183.817 18.2135V26.9784H178.114V8.08105H182.74L183.183 9.88376C183.817 9.38646 184.577 8.95133 185.464 8.57835C186.352 8.26754 187.365 8.08105 188.569 8.08105H191.294V12.9919H191.23Z" fill="#373737"/>
<path d="M200.862 22.7512C201.495 22.7512 202.066 22.6891 202.573 22.5026C203.079 22.3161 203.523 22.0674 203.84 21.6945C204.22 21.3215 204.473 20.8242 204.664 20.2026C204.854 19.581 204.98 18.835 204.98 17.9026V8.0188H210.746V18.0891C210.746 19.8296 210.493 21.2593 209.986 22.4404C209.479 23.6215 208.782 24.6161 207.895 25.362C207.008 26.108 205.994 26.6674 204.79 26.9782C203.586 27.2891 202.256 27.4755 200.862 27.4755C199.468 27.4755 198.137 27.2891 196.933 26.9782C195.729 26.6674 194.715 26.108 193.828 25.362C192.941 24.6161 192.244 23.6215 191.737 22.4404C191.231 21.2593 190.977 19.7674 190.977 18.0891V8.0188H196.743V17.9026C196.743 18.7728 196.806 19.581 196.997 20.1404C197.187 20.762 197.44 21.2593 197.82 21.6323C198.2 22.0053 198.581 22.2539 199.088 22.4404C199.658 22.6891 200.228 22.7512 200.862 22.7512Z" fill="#373737"/>
<path d="M175.39 21.3838H169.687V26.9784H175.39V21.3838Z" fill="#373737"/>
<path d="M111.836 39.7216C111.836 39.2243 111.9 38.7891 112.09 38.354C112.28 37.9188 112.47 37.5459 112.787 37.2351C113.104 36.9243 113.484 36.6756 113.864 36.4891C114.308 36.3026 114.814 36.2405 115.321 36.2405C115.702 36.2405 116.082 36.3026 116.399 36.427C116.715 36.5513 116.969 36.6756 117.222 36.8621V34.127H119.187V42.954H117.476L117.349 42.3945C117.096 42.581 116.779 42.7675 116.462 42.954C116.145 43.1405 115.702 43.2026 115.321 43.2026C114.751 43.2026 114.308 43.1405 113.864 42.954C113.421 42.7675 113.04 42.5189 112.724 42.208C112.407 41.8972 112.153 41.5243 112.027 41.0891C111.9 40.654 111.836 40.2188 111.836 39.7216ZM113.801 39.7216C113.801 39.9702 113.864 40.2189 113.927 40.4675C113.991 40.7161 114.117 40.9026 114.308 41.027C114.498 41.2134 114.624 41.3378 114.878 41.3999C115.131 41.4621 115.321 41.5243 115.575 41.5243C115.828 41.5243 116.018 41.4621 116.272 41.3999C116.462 41.3378 116.652 41.2134 116.842 41.027C117.032 40.8405 117.159 40.654 117.222 40.4675C117.286 40.2189 117.349 39.9702 117.349 39.7216C117.349 39.4729 117.286 39.2243 117.222 38.9756C117.159 38.727 117.032 38.5405 116.842 38.4161C116.652 38.2297 116.525 38.1675 116.272 38.0432C116.082 37.981 115.828 37.9188 115.575 37.9188C115.321 37.9188 115.068 37.981 114.878 38.0432C114.688 38.1053 114.498 38.2297 114.308 38.4161C114.181 38.6026 114.054 38.7891 113.927 38.9756C113.864 39.2243 113.801 39.4729 113.801 39.7216Z" fill="#373737"/>
<path d="M122.101 36.4893H120.137V43.0163H122.101V36.4893Z" fill="#373737"/>
<path d="M122.735 39.7216C122.735 39.2243 122.798 38.7891 122.988 38.354C123.178 37.9189 123.368 37.5459 123.685 37.2351C124.002 36.9243 124.382 36.6756 124.826 36.4891C125.269 36.3026 125.776 36.2405 126.283 36.2405C126.537 36.2405 126.727 36.2405 126.917 36.3026C127.107 36.3648 127.297 36.427 127.487 36.4891C127.677 36.5513 127.804 36.6135 127.994 36.7378C128.121 36.7999 128.311 36.9243 128.374 37.0486L128.501 36.4891H130.085V42.5189C130.085 43.0162 130.022 43.4513 129.832 43.8864C129.641 44.3216 129.451 44.6324 129.135 44.9432C128.818 45.254 128.438 45.4405 127.994 45.627C127.55 45.8135 127.044 45.8756 126.473 45.8756C126.093 45.8756 125.713 45.8135 125.396 45.7513C125.079 45.6891 124.762 45.5648 124.572 45.4405C124.382 45.3162 124.129 45.1918 123.939 45.0053C123.749 44.8189 123.622 44.6324 123.495 44.4459C123.368 44.2594 123.305 44.0729 123.242 43.8243C123.178 43.5756 123.115 43.3891 123.115 43.2026H125.016C125.079 43.327 125.143 43.4513 125.206 43.5756C125.269 43.6999 125.396 43.7621 125.523 43.8864C125.65 44.0108 125.776 44.0108 125.966 44.0729C126.156 44.1351 126.347 44.1351 126.537 44.1351C126.853 44.1351 127.17 44.0729 127.36 43.9486C127.55 43.8243 127.741 43.6999 127.867 43.5135C127.994 43.327 128.057 43.2026 128.121 43.0162C128.184 42.8297 128.184 42.6432 128.184 42.5189V42.3324C127.931 42.5189 127.614 42.7053 127.297 42.8297C126.98 42.954 126.537 43.0162 126.093 43.0162C125.586 43.0162 125.143 42.954 124.699 42.7675C124.256 42.581 123.939 42.3945 123.622 42.0837C123.305 41.7729 123.115 41.3999 122.925 41.027C122.798 40.654 122.735 40.2189 122.735 39.7216ZM124.699 39.7216C124.699 39.9702 124.762 40.2189 124.826 40.4675C124.889 40.7162 125.016 40.9026 125.206 41.027C125.396 41.2135 125.523 41.2756 125.776 41.3999C125.966 41.4621 126.22 41.5243 126.473 41.5243C126.727 41.5243 126.917 41.4621 127.17 41.3999C127.36 41.3378 127.55 41.2135 127.741 41.027C127.867 40.8405 127.994 40.654 128.121 40.4675C128.184 40.2189 128.247 39.9702 128.247 39.7216C128.247 39.4729 128.184 39.2243 128.121 38.9756C128.057 38.727 127.931 38.5405 127.741 38.4162C127.55 38.2297 127.424 38.1675 127.17 38.0432C126.98 37.981 126.727 37.9189 126.473 37.9189C126.22 37.9189 125.966 37.981 125.776 38.0432C125.586 38.1053 125.396 38.2297 125.206 38.4162C125.079 38.6026 124.953 38.7891 124.826 38.9756C124.762 39.2243 124.699 39.4729 124.699 39.7216Z" fill="#373737"/>
<path d="M133 36.4893H131.036V43.0163H133V36.4893Z" fill="#373737"/>
<path d="M134.901 34.6863H136.295V36.489H138.196V38.1674H136.295V40.4674C136.295 40.6539 136.295 40.8403 136.358 40.9647C136.422 41.089 136.485 41.2133 136.548 41.2755C136.612 41.3376 136.738 41.3998 136.865 41.462C136.992 41.462 137.119 41.5241 137.245 41.5241H138.322V43.1403H137.055C136.675 43.1403 136.358 43.0782 135.978 43.016C135.598 42.9539 135.344 42.8295 135.091 42.643C134.837 42.4566 134.647 42.2079 134.521 41.8349C134.394 41.462 134.331 41.0268 134.331 40.5295V38.2295H133.253V36.7376L134.267 36.3647L134.901 34.6863Z" fill="#373737"/>
<path d="M138.449 39.7216C138.449 39.2243 138.513 38.7891 138.703 38.354C138.893 37.9189 139.083 37.5459 139.4 37.2351C139.716 36.9243 140.097 36.6756 140.54 36.4891C140.984 36.3026 141.491 36.2405 141.998 36.2405C142.441 36.2405 142.821 36.3026 143.201 36.427C143.582 36.5513 143.835 36.7378 144.089 36.9243L144.152 36.427H145.863V42.954H144.152L144.089 42.4567C143.835 42.6432 143.518 42.8297 143.201 42.954C142.885 43.0783 142.441 43.1405 141.998 43.1405C141.427 43.1405 140.984 43.0783 140.54 42.8918C140.097 42.7054 139.716 42.4567 139.4 42.1459C139.083 41.8351 138.829 41.4621 138.703 41.027C138.513 40.654 138.449 40.2189 138.449 39.7216ZM140.413 39.7216C140.413 39.9702 140.477 40.2189 140.54 40.4675C140.604 40.7162 140.73 40.9026 140.92 41.027C141.11 41.2135 141.237 41.2756 141.491 41.3999C141.681 41.4621 141.934 41.5243 142.188 41.5243C142.441 41.5243 142.631 41.4621 142.885 41.3999C143.075 41.3378 143.265 41.2135 143.455 41.027C143.645 40.8405 143.772 40.654 143.835 40.4675C143.898 40.2189 143.962 39.9702 143.962 39.7216C143.962 39.4729 143.898 39.2243 143.835 38.9756C143.772 38.727 143.645 38.5405 143.455 38.4162C143.265 38.2297 143.138 38.1675 142.885 38.0432C142.695 37.981 142.441 37.9189 142.188 37.9189C141.934 37.9189 141.681 37.981 141.491 38.0432C141.301 38.1053 141.11 38.2297 140.92 38.4162C140.794 38.6026 140.667 38.7891 140.54 38.9756C140.477 39.2243 140.413 39.4729 140.413 39.7216Z" fill="#373737"/>
<path d="M146.75 34.127H148.714V42.954H146.75V34.127Z" fill="#373737"/>
<path d="M151.818 32.7595H153.719V45.3784H151.818V32.7595Z" fill="#373737"/>
<path d="M164.238 39.7216C164.238 40.2188 164.175 40.654 163.985 41.0891C163.795 41.5243 163.605 41.8972 163.288 42.208C162.971 42.5189 162.591 42.7675 162.147 42.954C161.704 43.1405 161.197 43.2026 160.69 43.2026C160.5 43.2026 160.246 43.2026 160.056 43.1405C159.866 43.0783 159.676 43.0783 159.486 42.954C159.296 42.8918 159.169 42.8297 158.979 42.7053C158.852 42.6432 158.662 42.5189 158.599 42.4567L158.536 42.954H156.825V34.127H158.789V36.8621C159.042 36.6756 159.296 36.5513 159.613 36.427C159.929 36.3026 160.31 36.2405 160.69 36.2405C161.26 36.2405 161.704 36.3026 162.147 36.4891C162.591 36.6756 162.971 36.9243 163.224 37.2351C163.478 37.5459 163.731 37.9188 163.921 38.354C164.111 38.7891 164.238 39.2243 164.238 39.7216ZM162.274 39.7216C162.274 39.4729 162.211 39.2243 162.147 38.9756C162.084 38.727 161.957 38.5405 161.767 38.4161C161.64 38.2297 161.45 38.1675 161.197 38.0432C161.007 37.981 160.753 37.9188 160.5 37.9188C160.246 37.9188 160.056 37.981 159.803 38.0432C159.613 38.1053 159.423 38.2297 159.233 38.4161C159.042 38.6026 158.916 38.7891 158.852 38.9756C158.789 39.2243 158.726 39.4107 158.726 39.7216C158.726 39.9702 158.789 40.2189 158.852 40.4675C158.916 40.7161 159.042 40.9026 159.233 41.027C159.423 41.2134 159.549 41.2756 159.803 41.3999C160.056 41.5243 160.246 41.5243 160.5 41.5243C160.753 41.5243 160.943 41.4621 161.197 41.3999C161.45 41.3378 161.577 41.2134 161.767 41.027C161.957 40.8405 162.084 40.654 162.147 40.4675C162.211 40.2189 162.274 39.9702 162.274 39.7216Z" fill="#373737"/>
<path d="M169.307 38.1676H168.483C167.913 38.1676 167.533 38.2919 167.216 38.6027C166.899 38.9135 166.772 39.3487 166.772 39.9703V43.0163H164.808V36.4893H166.392L166.519 37.1109C166.709 36.9244 166.962 36.8 167.279 36.6757C167.596 36.5514 167.913 36.4893 168.356 36.4893H169.307V38.1676Z" fill="#373737"/>
<path d="M169.181 39.7216C169.181 39.2243 169.244 38.7891 169.434 38.354C169.624 37.9189 169.814 37.5459 170.131 37.2351C170.448 36.9243 170.828 36.6756 171.272 36.4891C171.715 36.3026 172.222 36.2405 172.729 36.2405C173.173 36.2405 173.553 36.3026 173.933 36.427C174.313 36.5513 174.567 36.7378 174.82 36.9243L174.883 36.427H176.594V42.954H174.883L174.82 42.4567C174.567 42.6432 174.25 42.8297 173.933 42.954C173.616 43.0783 173.173 43.1405 172.729 43.1405C172.159 43.1405 171.715 43.0783 171.272 42.8918C170.828 42.7054 170.448 42.4567 170.131 42.1459C169.814 41.8351 169.561 41.4621 169.434 41.027C169.244 40.654 169.181 40.2189 169.181 39.7216ZM171.145 39.7216C171.145 39.9702 171.208 40.2189 171.272 40.4675C171.335 40.7162 171.462 40.9026 171.652 41.027C171.842 41.2135 171.969 41.2756 172.222 41.3999C172.412 41.4621 172.666 41.5243 172.919 41.5243C173.173 41.5243 173.363 41.4621 173.616 41.3999C173.806 41.3378 173.996 41.2135 174.186 41.027C174.376 40.8405 174.503 40.654 174.567 40.4675C174.63 40.2189 174.693 39.9702 174.693 39.7216C174.693 39.4729 174.63 39.2243 174.567 38.9756C174.503 38.727 174.376 38.5405 174.186 38.4162C173.996 38.2297 173.87 38.1675 173.616 38.0432C173.426 37.981 173.173 37.9189 172.919 37.9189C172.666 37.9189 172.412 37.981 172.222 38.0432C172.032 38.1053 171.842 38.2297 171.652 38.4162C171.525 38.6026 171.398 38.7891 171.272 38.9756C171.208 39.2243 171.145 39.4729 171.145 39.7216Z" fill="#373737"/>
<path d="M184.324 42.9541H182.36V39.5352C182.36 39.2244 182.297 38.9757 182.233 38.7892C182.17 38.6027 182.106 38.4162 181.98 38.2919C181.853 38.1676 181.726 38.1054 181.536 38.0433C181.346 37.9811 181.219 37.9811 181.029 37.9811C180.776 37.9811 180.586 38.0433 180.396 38.1054C180.206 38.1676 180.015 38.2919 179.889 38.4784C179.762 38.6649 179.635 38.8514 179.572 39.0379C179.509 39.2865 179.445 39.473 179.445 39.7217V43.0162H177.481V36.4892H179.065L179.192 36.9865C179.318 36.9244 179.509 36.8 179.635 36.7379C179.762 36.6757 179.952 36.5514 180.142 36.4892C180.332 36.4271 180.522 36.3649 180.712 36.3649C180.903 36.3027 181.093 36.3027 181.283 36.3027C181.79 36.3027 182.297 36.3649 182.677 36.5514C183.057 36.7379 183.374 36.9244 183.627 37.173C183.881 37.4217 184.071 37.7946 184.134 38.1676C184.261 38.5406 184.324 39.0379 184.324 39.5352V42.9541Z" fill="#373737"/>
<path d="M184.704 39.7216C184.704 39.2243 184.767 38.7891 184.958 38.354C185.148 37.9188 185.338 37.5459 185.655 37.2351C185.971 36.9243 186.352 36.6756 186.732 36.4891C187.175 36.3026 187.682 36.2405 188.189 36.2405C188.569 36.2405 188.949 36.3026 189.266 36.427C189.583 36.5513 189.837 36.6756 190.09 36.8621V34.127H192.054V42.954H190.343L190.217 42.3945C189.963 42.581 189.646 42.7675 189.33 42.954C189.013 43.0783 188.569 43.2026 188.189 43.2026C187.619 43.2026 187.175 43.1405 186.732 42.954C186.288 42.7675 185.908 42.5189 185.591 42.208C185.274 41.8972 185.021 41.5243 184.894 41.0891C184.831 40.654 184.704 40.2188 184.704 39.7216ZM186.732 39.7216C186.732 39.9702 186.795 40.2189 186.858 40.4675C186.922 40.7161 187.049 40.9026 187.239 41.027C187.429 41.2134 187.555 41.3378 187.809 41.3999C187.999 41.4621 188.252 41.5243 188.506 41.5243C188.759 41.5243 188.949 41.4621 189.203 41.3999C189.456 41.3378 189.583 41.2134 189.773 41.027C189.963 40.8405 190.09 40.654 190.153 40.4675C190.217 40.2189 190.28 39.9702 190.28 39.7216C190.28 39.4729 190.217 39.2243 190.153 38.9756C190.09 38.727 189.963 38.5405 189.773 38.4161C189.583 38.2297 189.456 38.1675 189.203 38.0432C188.949 37.9188 188.759 37.9188 188.506 37.9188C188.252 37.9188 187.999 37.981 187.809 38.0432C187.619 38.1053 187.429 38.2297 187.239 38.4161C187.112 38.6026 186.985 38.7891 186.858 38.9756C186.732 39.2243 186.732 39.4729 186.732 39.7216Z" fill="#373737"/>
<path d="M195.033 36.4893H193.068V43.0163H195.033V36.4893Z" fill="#373737"/>
<path d="M202.889 42.9541H200.925V39.5352C200.925 39.2244 200.862 38.9757 200.798 38.7892C200.735 38.6027 200.671 38.4162 200.545 38.2919C200.418 38.1676 200.291 38.1054 200.101 38.0433C199.911 37.9811 199.784 37.9811 199.594 37.9811C199.341 37.9811 199.151 38.0433 198.961 38.1054C198.771 38.1676 198.58 38.2919 198.454 38.4784C198.327 38.6649 198.2 38.8514 198.137 39.0379C198.074 39.2865 198.01 39.473 198.01 39.7217V43.0162H196.046V36.4892H197.63L197.757 36.9865C197.883 36.9244 198.074 36.8 198.2 36.7379C198.327 36.6757 198.517 36.5514 198.707 36.4892C198.897 36.4271 199.087 36.3649 199.277 36.3649C199.468 36.3027 199.658 36.3027 199.848 36.3027C200.355 36.3027 200.862 36.3649 201.242 36.5514C201.622 36.7379 201.939 36.9244 202.192 37.173C202.446 37.4217 202.636 37.7946 202.699 38.1676C202.826 38.5406 202.889 39.0379 202.889 39.5352V42.9541Z" fill="#373737"/>
<path d="M203.27 39.7216C203.27 39.2243 203.333 38.7891 203.523 38.354C203.714 37.9189 203.904 37.5459 204.22 37.2351C204.537 36.9243 204.917 36.6756 205.361 36.4891C205.805 36.3026 206.311 36.2405 206.818 36.2405C207.072 36.2405 207.262 36.2405 207.452 36.3026C207.642 36.3648 207.832 36.427 208.022 36.4891C208.212 36.5513 208.339 36.6135 208.529 36.7378C208.656 36.7999 208.846 36.9243 208.909 37.0486L209.036 36.4891H210.62V42.5189C210.62 43.0162 210.557 43.4513 210.367 43.8864C210.177 44.3216 209.987 44.6324 209.67 44.9432C209.353 45.254 208.973 45.4405 208.529 45.627C208.086 45.8135 207.579 45.8756 207.008 45.8756C206.628 45.8756 206.248 45.8135 205.931 45.7513C205.614 45.6891 205.298 45.5648 205.108 45.4405C204.917 45.3162 204.664 45.1918 204.474 45.0053C204.284 44.8189 204.157 44.6324 204.03 44.4459C203.904 44.2594 203.84 44.0729 203.777 43.8243C203.714 43.5756 203.65 43.3891 203.65 43.2026H205.551C205.614 43.327 205.678 43.4513 205.741 43.5756C205.805 43.6999 205.931 43.7621 206.058 43.8864C206.185 44.0108 206.311 44.0108 206.502 44.0729C206.692 44.1351 206.882 44.1351 207.072 44.1351C207.389 44.1351 207.705 44.0729 207.896 43.9486C208.086 43.8243 208.276 43.6999 208.402 43.5135C208.529 43.327 208.593 43.2026 208.656 43.0162C208.719 42.8297 208.719 42.6432 208.719 42.5189V42.3324C208.466 42.5189 208.149 42.7053 207.832 42.8297C207.515 42.954 207.072 43.0162 206.628 43.0162C206.121 43.0162 205.678 42.954 205.234 42.7675C204.791 42.581 204.474 42.3945 204.157 42.0837C203.84 41.7729 203.65 41.3999 203.46 41.027C203.333 40.654 203.27 40.2189 203.27 39.7216ZM205.234 39.7216C205.234 39.9702 205.298 40.2189 205.361 40.4675C205.424 40.7162 205.551 40.9026 205.741 41.027C205.931 41.2135 206.058 41.2756 206.311 41.3999C206.502 41.4621 206.755 41.5243 207.008 41.5243C207.262 41.5243 207.452 41.4621 207.705 41.3999C207.896 41.3378 208.086 41.2135 208.276 41.027C208.402 40.8405 208.529 40.654 208.656 40.4675C208.719 40.2189 208.783 39.9702 208.783 39.7216C208.783 39.4729 208.719 39.2243 208.656 38.9756C208.593 38.727 208.466 38.5405 208.276 38.4162C208.086 38.2297 207.959 38.1675 207.705 38.0432C207.515 37.981 207.262 37.9189 207.008 37.9189C206.755 37.9189 206.502 37.981 206.311 38.0432C206.121 38.1053 205.931 38.2297 205.741 38.4162C205.614 38.6026 205.488 38.7891 205.361 38.9756C205.298 39.2243 205.234 39.4729 205.234 39.7216Z" fill="#373737"/>
<path d="M122.164 34.127H120.2V36.054H122.164V34.127Z" fill="#373737"/>
<path d="M133 34.127H131.036V36.054H133V34.127Z" fill="#373737"/>
<path d="M195.033 34.127H193.068V36.054H195.033V34.127Z" fill="#373737"/>
</g>
<defs>
<clipPath id="clip0_1665_1690">
<rect width="211" height="46" fill="white"/>
</clipPath>
</defs>
</svg>
