<svg width="20" height="20" viewBox="0 0 20 20" fill="none" xmlns="http://www.w3.org/2000/svg">
<path fill-rule="evenodd" clip-rule="evenodd" d="M9 15C12.3137 15 15 12.3137 15 9C15 5.68629 12.3137 3 9 3C5.68629 3 3 5.68629 3 9C3 12.3137 5.68629 15 9 15ZM16 9C16 12.866 12.866 16 9 16C5.13401 16 2 12.866 2 9C2 5.13401 5.13401 2 9 2C12.866 2 16 5.13401 16 9Z" fill="#8D96A5"/>
<path fill-rule="evenodd" clip-rule="evenodd" d="M13.6464 13.6464C13.8417 13.4512 14.1583 13.4512 14.3536 13.6464L17.3536 16.6464C17.5488 16.8417 17.5488 17.1583 17.3536 17.3536C17.1583 17.5488 16.8417 17.5488 16.6464 17.3536L13.6464 14.3536C13.4512 14.1583 13.4512 13.8417 13.6464 13.6464Z" fill="#8D96A5"/>
</svg>
